<svg width="16" height="28" viewBox="0 0 16 28" fill="none" xmlns="http://www.w3.org/2000/svg">
<path d="M12.5457 18.97C14.5042 19.88 15.7783 21.344 15.7783 23C15.7783 25.76 12.2479 28 7.88915 28C3.53039 28 0 25.76 0 23C0 21.344 1.27212 19.88 3.23061 18.97L3.75721 19.678C4.65262 20.864 5.50465 21.998 6.25806 23.124C6.43891 23.3938 6.68208 23.6146 6.96638 23.7672C7.25068 23.9198 7.56747 23.9996 7.88915 23.9996C8.21082 23.9996 8.52762 23.9198 8.81191 23.7672C9.09621 23.6146 9.33938 23.3938 9.52023 23.124C10.3226 21.9524 11.1565 20.8033 12.0211 19.678L12.5457 18.97Z" fill="#155DFC"/>
<path d="M7.88915 0C12.6226 0 15.7783 3.144 15.7783 7.858C15.7783 11.974 12.169 16.092 9.15141 20.21C8.71825 20.7976 8.2974 21.3944 7.88915 22C7.06473 20.768 6.13381 19.536 5.20486 18.302C2.58172 14.822 0 11.34 0 7.86C0 3.144 3.15566 0 7.88915 0ZM7.88915 3.928C6.84383 3.928 5.83994 4.344 5.10033 5.08C4.73552 5.44209 4.44544 5.87421 4.24701 6.35116C4.04858 6.82811 3.94577 7.34034 3.94457 7.858C3.94457 8.898 4.35875 9.898 5.10033 10.634C5.83994 11.372 6.84383 11.786 7.88915 11.786C8.93446 11.786 9.93835 11.372 10.678 10.634C11.0429 10.2726 11.333 9.84083 11.531 9.3641C11.729 8.88737 11.831 8.37529 11.831 7.858C11.831 7.34071 11.729 6.82864 11.531 6.3519C11.333 5.87517 11.0429 5.44341 10.678 5.082C9.93309 4.34208 8.93185 3.92777 7.88915 3.928Z" fill="#155DFC"/>
</svg>
